<?xml version="1.0" encoding="iso-8859-1"?>
<!-- Generator: Adobe Illustrator 12.0.0, SVG Export Plug-In . SVG Version: 6.00 Build 51448)  -->
<!DOCTYPE svg PUBLIC "-//W3C//DTD SVG 1.1//EN" "http://www.w3.org/Graphics/SVG/1.1/DTD/svg11.dtd" [
	<!ENTITY ns_svg "http://www.w3.org/2000/svg">
	<!ENTITY ns_xlink "http://www.w3.org/1999/xlink">
]>
<svg  version="1.1" id="&#xCD;_xBC__xB2_&#xE3;_x5F_1" xmlns="&ns_svg;" xmlns:xlink="&ns_xlink;" width="24.072" height="21.647"
	 viewBox="0 0 24.072 21.647" style="overflow:visible;enable-background:new 0 0 24.072 21.647;" xml:space="preserve">
<g>
	<polygon style="fill:#8BBC5C;stroke:#000000;" points="23.572,9.677 23.572,7.948 21.021,0.5 3.294,0.53 0.5,8.034 0.5,9.649 
		4.304,21.147 19.555,21.147 	"/>
	<linearGradient id="XMLID_6_" gradientUnits="userSpaceOnUse" x1="12.0381" y1="7.7437" x2="12.1534" y2="0.0348">
		<stop  offset="0" style="stop-color:#85C443"/>
		<stop  offset="0.1788" style="stop-color:#99CA3E"/>
		<stop  offset="0.5437" style="stop-color:#CCDB2B"/>
		<stop  offset="0.9045" style="stop-color:#FFEF00"/>
	</linearGradient>
	<polygon style="fill:url(#XMLID_6_);" points="23.442,8.048 0.622,8.165 3.536,0.543 21.036,0.485 	"/>
	
		<linearGradient id="XMLID_7_" gradientUnits="userSpaceOnUse" x1="9.479" y1="-1.2554" x2="6.865" y2="0.1167" gradientTransform="matrix(0.9993 0.037 -0.0368 0.9991 -4.8491 6.047)">
		<stop  offset="0" style="stop-color:#A3CD39"/>
		<stop  offset="0.2256" style="stop-color:#B7D433"/>
		<stop  offset="0.6866" style="stop-color:#E8E613"/>
		<stop  offset="0.9045" style="stop-color:#FFEF00"/>
	</linearGradient>
	<polygon style="fill:url(#XMLID_7_);" points="5.996,7.913 0.863,7.78 2.764,2.651 3.229,3.603 	"/>
	
		<linearGradient id="XMLID_8_" gradientUnits="userSpaceOnUse" x1="233.9336" y1="9.3945" x2="231.4225" y2="10.7126" gradientTransform="matrix(-0.9997 -0.0262 -0.0262 0.9997 253.6801 2.0548)">
		<stop  offset="0" style="stop-color:#A3CD39"/>
		<stop  offset="0.2256" style="stop-color:#B7D433"/>
		<stop  offset="0.6866" style="stop-color:#E8E613"/>
		<stop  offset="0.9045" style="stop-color:#FFEF00"/>
	</linearGradient>
	<polygon style="fill:url(#XMLID_8_);" points="18.084,7.978 23.152,7.913 21.793,3.069 	"/>
	
		<linearGradient id="XMLID_9_" gradientUnits="userSpaceOnUse" x1="12.4521" y1="9.4331" x2="12.3599" y2="19.5841" gradientTransform="matrix(1 0.008 -0.008 1 -0.308 1.0315)">
		<stop  offset="0" style="stop-color:#005B54"/>
		<stop  offset="0.0222" style="stop-color:#006055"/>
		<stop  offset="0.1611" style="stop-color:#008354"/>
		<stop  offset="0.2667" style="stop-color:#009A50"/>
		<stop  offset="0.3258" style="stop-color:#00A650"/>
		<stop  offset="0.3784" style="stop-color:#00AD4D"/>
		<stop  offset="0.4684" style="stop-color:#61BB46"/>
		<stop  offset="0.5524" style="stop-color:#91C83E"/>
		<stop  offset="0.6276" style="stop-color:#B0D135"/>
		<stop  offset="0.6913" style="stop-color:#C2D82E"/>
		<stop  offset="0.736" style="stop-color:#C8DA2B"/>
		<stop  offset="0.7605" style="stop-color:#B6D333"/>
		<stop  offset="0.8107" style="stop-color:#82C341"/>
		<stop  offset="0.8816" style="stop-color:#00AD4D"/>
		<stop  offset="0.9101" style="stop-color:#00A650"/>
	</linearGradient>
	<polygon style="fill:url(#XMLID_9_);" points="19.23,20.8 4.668,20.817 0.963,9.397 23.213,9.481 	"/>
	<linearGradient id="XMLID_10_" gradientUnits="userSpaceOnUse" x1="11.6592" y1="13.2617" x2="11.4843" y2="19.384">
		<stop  offset="0" style="stop-color:#000000"/>
		<stop  offset="0.1127" style="stop-color:#080808"/>
		<stop  offset="0.1815" style="stop-color:#1C1C1C"/>
		<stop  offset="0.2385" style="stop-color:#31322F"/>
		<stop  offset="0.289" style="stop-color:#42443C"/>
		<stop  offset="0.3353" style="stop-color:#4F5343"/>
		<stop  offset="0.3786" style="stop-color:#5E6347"/>
		<stop  offset="0.4194" style="stop-color:#6D7446"/>
		<stop  offset="0.4582" style="stop-color:#7C863D"/>
		<stop  offset="0.4943" style="stop-color:#8B9A27"/>
		<stop  offset="0.5056" style="stop-color:#91A11E"/>
		<stop  offset="0.5218" style="stop-color:#8B9A28"/>
		<stop  offset="0.5763" style="stop-color:#7A8440"/>
		<stop  offset="0.6326" style="stop-color:#697047"/>
		<stop  offset="0.6897" style="stop-color:#595E46"/>
		<stop  offset="0.7476" style="stop-color:#494C40"/>
		<stop  offset="0.8066" style="stop-color:#393A36"/>
		<stop  offset="0.8672" style="stop-color:#212120"/>
		<stop  offset="0.9303" style="stop-color:#080808"/>
		<stop  offset="1" style="stop-color:#000000"/>
	</linearGradient>
	<path style="fill:url(#XMLID_10_);" d="M16.997,15.536c0-2.443-2.419-4.426-5.402-4.426s-5.402,1.982-5.402,4.426
		s2.419,4.424,5.402,4.424c0.952,0,1.845-0.203,2.621-0.557l0.884,0.865l1.197-0.752l-0.876-0.857
		C16.396,17.858,16.997,16.755,16.997,15.536z M11.595,18.485c-1.989,0-3.601-1.32-3.601-2.949c0-1.631,1.611-2.949,3.601-2.949
		s3.602,1.318,3.602,2.949c0,0.764-0.357,1.459-0.94,1.982l-1.839-1.801l1.566-0.982l-0.657-0.701l-4.236,2.66l0.656,0.701
		l1.474-0.924l1.81,1.77C12.59,18.397,12.104,18.485,11.595,18.485z"/>
	<rect x="0.617" y="8.011" style="fill:#00AD4D;" width="23.023" height="1.434"/>
</g>
</svg>
