<?xml version="1.0" encoding="UTF-8" standalone="no"?>
<!-- Created with Inkscape (http://www.inkscape.org/) -->
<svg
   xmlns:dc="http://purl.org/dc/elements/1.1/"
   xmlns:cc="http://web.resource.org/cc/"
   xmlns:rdf="http://www.w3.org/1999/02/22-rdf-syntax-ns#"
   xmlns:svg="http://www.w3.org/2000/svg"
   xmlns="http://www.w3.org/2000/svg"
   xmlns:xlink="http://www.w3.org/1999/xlink"
   xmlns:sodipodi="http://sodipodi.sourceforge.net/DTD/sodipodi-0.dtd"
   xmlns:inkscape="http://www.inkscape.org/namespaces/inkscape"
   width="221.73303"
   height="220.83516"
   id="svg1948"
   sodipodi:version="0.32"
   inkscape:version="0.44.1"
   sodipodi:docbase="/home/ablasche/depot/qtopia/4.2/pics/calculator"
   sodipodi:docname="calc.svg"
   version="1.0">
  <defs
     id="defs1950">
    <linearGradient
       inkscape:collect="always"
       id="linearGradient11308">
      <stop
         style="stop-color:black;stop-opacity:1;"
         offset="0"
         id="stop11310" />
      <stop
         style="stop-color:black;stop-opacity:0;"
         offset="1"
         id="stop11312" />
    </linearGradient>
    <linearGradient
       id="linearGradient10417">
      <stop
         id="stop10419"
         offset="0"
         style="stop-color:#e6e600;stop-opacity:1;" />
      <stop
         id="stop10421"
         offset="1"
         style="stop-color:#e6e600;stop-opacity:0;" />
    </linearGradient>
    <linearGradient
       id="linearGradient4690">
      <stop
         style="stop-color:#e6e600;stop-opacity:1;"
         offset="0"
         id="stop4692" />
      <stop
         style="stop-color:#e6e600;stop-opacity:0;"
         offset="1"
         id="stop4694" />
    </linearGradient>
    <linearGradient
       id="linearGradient4682">
      <stop
         style="stop-color:black;stop-opacity:0.33636364;"
         offset="0"
         id="stop4684" />
      <stop
         style="stop-color:black;stop-opacity:0;"
         offset="1"
         id="stop4686" />
    </linearGradient>
    <radialGradient
       inkscape:collect="always"
       xlink:href="#linearGradient4690"
       id="radialGradient4702"
       cx="301.53052"
       cy="523.04224"
       fx="301.53052"
       fy="523.04224"
       r="101.01017"
       gradientTransform="matrix(1,0,0,1.585029,0,-305.9951)"
       gradientUnits="userSpaceOnUse"
       spreadMethod="reflect" />
    <radialGradient
       inkscape:collect="always"
       xlink:href="#linearGradient4690"
       id="radialGradient4704"
       gradientUnits="userSpaceOnUse"
       gradientTransform="matrix(1,0,0,1.585029,0,-305.9951)"
       spreadMethod="reflect"
       cx="301.53052"
       cy="523.04224"
       fx="301.53052"
       fy="523.04224"
       r="101.01017" />
    <radialGradient
       inkscape:collect="always"
       xlink:href="#linearGradient4690"
       id="radialGradient4706"
       gradientUnits="userSpaceOnUse"
       gradientTransform="matrix(1,0,0,1.585029,0,-305.9951)"
       spreadMethod="reflect"
       cx="301.53052"
       cy="523.04224"
       fx="301.53052"
       fy="523.04224"
       r="101.01017" />
    <radialGradient
       inkscape:collect="always"
       xlink:href="#linearGradient4690"
       id="radialGradient4708"
       gradientUnits="userSpaceOnUse"
       gradientTransform="matrix(1,0,0,1.585029,0,-305.9951)"
       spreadMethod="reflect"
       cx="301.53052"
       cy="523.04224"
       fx="301.53052"
       fy="523.04224"
       r="101.01017" />
    <radialGradient
       inkscape:collect="always"
       xlink:href="#linearGradient4690"
       id="radialGradient4718"
       gradientUnits="userSpaceOnUse"
       gradientTransform="matrix(1,0,0,1.585029,0,-305.9951)"
       spreadMethod="reflect"
       cx="301.53052"
       cy="523.04224"
       fx="301.53052"
       fy="523.04224"
       r="101.01017" />
    <radialGradient
       inkscape:collect="always"
       xlink:href="#linearGradient4690"
       id="radialGradient4720"
       gradientUnits="userSpaceOnUse"
       gradientTransform="matrix(1,0,0,1.585029,0,-305.9951)"
       spreadMethod="reflect"
       cx="301.53052"
       cy="523.04224"
       fx="301.53052"
       fy="523.04224"
       r="101.01017" />
    <radialGradient
       inkscape:collect="always"
       xlink:href="#linearGradient4690"
       id="radialGradient4722"
       gradientUnits="userSpaceOnUse"
       gradientTransform="matrix(1,0,0,1.585029,0,-305.9951)"
       spreadMethod="reflect"
       cx="301.53052"
       cy="523.04224"
       fx="301.53052"
       fy="523.04224"
       r="101.01017" />
    <radialGradient
       inkscape:collect="always"
       xlink:href="#linearGradient4690"
       id="radialGradient4724"
       gradientUnits="userSpaceOnUse"
       gradientTransform="matrix(1,0,0,1.585029,0,-305.9951)"
       spreadMethod="reflect"
       cx="301.53052"
       cy="523.04224"
       fx="301.53052"
       fy="523.04224"
       r="101.01017" />
    <radialGradient
       inkscape:collect="always"
       xlink:href="#linearGradient4690"
       id="radialGradient6771"
       gradientUnits="userSpaceOnUse"
       gradientTransform="matrix(1,0,0,1.585029,0,-305.9951)"
       spreadMethod="reflect"
       cx="301.53052"
       cy="523.04224"
       fx="301.53052"
       fy="523.04224"
       r="101.01017" />
    <radialGradient
       inkscape:collect="always"
       xlink:href="#linearGradient4690"
       id="radialGradient6773"
       gradientUnits="userSpaceOnUse"
       gradientTransform="matrix(1,0,0,1.585029,0,-305.9951)"
       spreadMethod="reflect"
       cx="301.53052"
       cy="523.04224"
       fx="301.53052"
       fy="523.04224"
       r="101.01017" />
    <radialGradient
       inkscape:collect="always"
       xlink:href="#linearGradient4690"
       id="radialGradient6775"
       gradientUnits="userSpaceOnUse"
       gradientTransform="matrix(1,0,0,1.585029,0,-305.9951)"
       spreadMethod="reflect"
       cx="301.53052"
       cy="523.04224"
       fx="301.53052"
       fy="523.04224"
       r="101.01017" />
    <radialGradient
       inkscape:collect="always"
       xlink:href="#linearGradient4690"
       id="radialGradient6777"
       gradientUnits="userSpaceOnUse"
       gradientTransform="matrix(1,0,0,1.585029,0,-305.9951)"
       spreadMethod="reflect"
       cx="301.53052"
       cy="523.04224"
       fx="301.53052"
       fy="523.04224"
       r="101.01017" />
    <radialGradient
       inkscape:collect="always"
       xlink:href="#linearGradient4690"
       id="radialGradient6787"
       gradientUnits="userSpaceOnUse"
       gradientTransform="matrix(1,0,0,1.585029,0,-305.9951)"
       spreadMethod="reflect"
       cx="301.53052"
       cy="523.04224"
       fx="301.53052"
       fy="523.04224"
       r="101.01017" />
    <radialGradient
       inkscape:collect="always"
       xlink:href="#linearGradient4690"
       id="radialGradient6789"
       gradientUnits="userSpaceOnUse"
       gradientTransform="matrix(1,0,0,1.585029,0,-305.9951)"
       spreadMethod="reflect"
       cx="301.53052"
       cy="523.04224"
       fx="301.53052"
       fy="523.04224"
       r="101.01017" />
    <radialGradient
       inkscape:collect="always"
       xlink:href="#linearGradient4690"
       id="radialGradient6791"
       gradientUnits="userSpaceOnUse"
       gradientTransform="matrix(1,0,0,1.585029,0,-305.9951)"
       spreadMethod="reflect"
       cx="301.53052"
       cy="523.04224"
       fx="301.53052"
       fy="523.04224"
       r="101.01017" />
    <radialGradient
       inkscape:collect="always"
       xlink:href="#linearGradient4690"
       id="radialGradient6793"
       gradientUnits="userSpaceOnUse"
       gradientTransform="matrix(1,0,0,1.585029,0,-305.9951)"
       spreadMethod="reflect"
       cx="301.53052"
       cy="523.04224"
       fx="301.53052"
       fy="523.04224"
       r="101.01017" />
    <radialGradient
       inkscape:collect="always"
       xlink:href="#linearGradient10417"
       id="radialGradient10415"
       cx="312.14285"
       cy="693.79077"
       fx="312.14285"
       fy="693.79077"
       r="95.5"
       gradientTransform="matrix(1,0,0,0.962603,0,25.94579)"
       gradientUnits="userSpaceOnUse"
       spreadMethod="repeat" />
    <linearGradient
       inkscape:collect="always"
       xlink:href="#linearGradient11308"
       id="linearGradient11320"
       x1="-233.57143"
       y1="1085.9336"
       x2="-112.13763"
       y2="977.36218"
       gradientUnits="userSpaceOnUse" />
  </defs>
  <sodipodi:namedview
     id="base"
     pagecolor="#ffffff"
     bordercolor="#666666"
     borderopacity="1.0"
     gridtolerance="10000"
     guidetolerance="10"
     objecttolerance="10"
     inkscape:pageopacity="0.0"
     inkscape:pageshadow="2"
     inkscape:zoom="2.8"
     inkscape:cx="120.02464"
     inkscape:cy="104.5002"
     inkscape:document-units="px"
     inkscape:current-layer="layer1"
     showguides="true"
     inkscape:guide-bbox="true"
     inkscape:window-width="1392"
     inkscape:window-height="972"
     inkscape:window-x="0"
     inkscape:window-y="0"
     width="201.09px"
     height="201.36px">
    <sodipodi:guide
       orientation="horizontal"
       position="358.57143"
       id="guide6841" />
  </sodipodi:namedview>
  <metadata
     id="metadata1953">
    <rdf:RDF>
      <cc:Work
         rdf:about="">
        <dc:format>image/svg+xml</dc:format>
        <dc:type
           rdf:resource="http://purl.org/dc/dcmitype/StillImage" />
      </cc:Work>
    </rdf:RDF>
  </metadata>
  <g
     inkscape:label="Layer 1"
     inkscape:groupmode="layer"
     id="layer1"
     transform="translate(-30.15851,-20.96346)">
    <g
       id="g3792"
       style="fill:url(#radialGradient4702);fill-opacity:1;stroke:#e6e600;stroke-opacity:1"
       transform="matrix(0.260777,0,0,0.260777,62.49058,-73.68245)">
      <path
         id="path2887"
         d="M 301.02546,363.43814 L 201.02036,573.54987"
         style="fill:url(#radialGradient4704);fill-opacity:1;fill-rule:evenodd;stroke:#e6e600;stroke-width:1px;stroke-linecap:butt;stroke-linejoin:miter;stroke-opacity:1" />
      <path
         id="path2891"
         d="M 301.02546,363.43814 L 402.04071,573.54987"
         style="fill:url(#radialGradient4706);fill-opacity:1;fill-rule:evenodd;stroke:#e6e600;stroke-width:1px;stroke-linecap:butt;stroke-linejoin:miter;stroke-opacity:1" />
      <path
         id="path2893"
         d="M 201.42389,575.33198 C 201.42389,575.33198 281.10404,506.79992 281.10404,541.06595 C 281.10404,575.33198 201.42389,682.74282 201.42389,682.74282 L 402.13718,682.74282 C 402.13718,682.74282 321.44842,575.33198 321.44842,541.06595 C 321.44842,506.79992 402.13718,575.33198 402.13718,575.33198"
         style="fill:url(#radialGradient4708);fill-opacity:1;fill-rule:evenodd;stroke:#e6e600;stroke-width:0.80705816px;stroke-linecap:butt;stroke-linejoin:miter;stroke-opacity:1" />
    </g>
    <g
       transform="matrix(0,0.260777,-0.260777,0,346.5375,52.30965)"
       style="fill:url(#radialGradient4718);fill-opacity:1;stroke:#e6e600;stroke-opacity:1"
       id="g4710">
      <path
         style="fill:url(#radialGradient4720);fill-opacity:1;fill-rule:evenodd;stroke:#e6e600;stroke-width:1px;stroke-linecap:butt;stroke-linejoin:miter;stroke-opacity:1"
         d="M 301.02546,363.43814 L 201.02036,573.54987"
         id="path4712" />
      <path
         style="fill:url(#radialGradient4722);fill-opacity:1;fill-rule:evenodd;stroke:#e6e600;stroke-width:1px;stroke-linecap:butt;stroke-linejoin:miter;stroke-opacity:1"
         d="M 301.02546,363.43814 L 402.04071,573.54987"
         id="path4714" />
      <path
         style="fill:url(#radialGradient4724);fill-opacity:1;fill-rule:evenodd;stroke:#e6e600;stroke-width:0.80705816px;stroke-linecap:butt;stroke-linejoin:miter;stroke-opacity:1"
         d="M 201.42389,575.33198 C 201.42389,575.33198 281.10404,506.79992 281.10404,541.06595 C 281.10404,575.33198 201.42389,682.74282 201.42389,682.74282 L 402.13718,682.74282 C 402.13718,682.74282 321.44842,575.33198 321.44842,541.06595 C 321.44842,506.79992 402.13718,575.33198 402.13718,575.33198"
         id="path4716" />
    </g>
    <g
       transform="matrix(0,-0.260777,0.260777,0,-64.48741,209.9706)"
       style="fill:url(#radialGradient6771);fill-opacity:1;stroke:#e6e600;stroke-opacity:1"
       id="g6763">
      <path
         style="fill:url(#radialGradient6773);fill-opacity:1;fill-rule:evenodd;stroke:#e6e600;stroke-width:1px;stroke-linecap:butt;stroke-linejoin:miter;stroke-opacity:1"
         d="M 301.02546,363.43814 L 201.02036,573.54987"
         id="path6765" />
      <path
         style="fill:url(#radialGradient6775);fill-opacity:1;fill-rule:evenodd;stroke:#e6e600;stroke-width:1px;stroke-linecap:butt;stroke-linejoin:miter;stroke-opacity:1"
         d="M 301.02546,363.43814 L 402.04071,573.54987"
         id="path6767" />
      <path
         style="fill:url(#radialGradient6777);fill-opacity:1;fill-rule:evenodd;stroke:#e6e600;stroke-width:0.80705816px;stroke-linecap:butt;stroke-linejoin:miter;stroke-opacity:1"
         d="M 201.42389,575.33198 C 201.42389,575.33198 281.10404,506.79992 281.10404,541.06595 C 281.10404,575.33198 201.42389,682.74282 201.42389,682.74282 L 402.13718,682.74282 C 402.13718,682.74282 321.44842,575.33198 321.44842,541.06595 C 321.44842,506.79992 402.13718,575.33198 402.13718,575.33198"
         id="path6769" />
    </g>
    <g
       transform="matrix(-0.260777,0,0,-0.260777,219.5382,336.4446)"
       style="fill:url(#radialGradient6787);fill-opacity:1;stroke:#e6e600;stroke-opacity:1"
       id="g6779">
      <path
         style="fill:url(#radialGradient6789);fill-opacity:1;fill-rule:evenodd;stroke:#e6e600;stroke-width:1px;stroke-linecap:butt;stroke-linejoin:miter;stroke-opacity:1"
         d="M 301.02546,363.43814 L 201.02036,573.54987"
         id="path6781" />
      <path
         style="fill:url(#radialGradient6791);fill-opacity:1;fill-rule:evenodd;stroke:#e6e600;stroke-width:1px;stroke-linecap:butt;stroke-linejoin:miter;stroke-opacity:1"
         d="M 301.02546,363.43814 L 402.04071,573.54987"
         id="path6783" />
      <path
         style="fill:url(#radialGradient6793);fill-opacity:1;fill-rule:evenodd;stroke:#e6e600;stroke-width:0.80705816px;stroke-linecap:butt;stroke-linejoin:miter;stroke-opacity:1"
         d="M 201.42389,575.33198 C 201.42389,575.33198 281.10404,506.79992 281.10404,541.06595 C 281.10404,575.33198 201.42389,682.74282 201.42389,682.74282 L 402.13718,682.74282 C 402.13718,682.74282 321.44842,575.33198 321.44842,541.06595 C 321.44842,506.79992 402.13718,575.33198 402.13718,575.33198"
         id="path6785" />
    </g>
    <path
       style="fill:#e6e600;fill-opacity:1;fill-rule:nonzero;stroke:#e6e600;stroke-width:1px;stroke-linecap:butt;stroke-linejoin:miter;stroke-opacity:1;opacity:0.5"
       id="path6803"
       d="M 130.51846,204.7279 C 130.79245,204.74498 131.06665,204.74176 131.34074,204.74597 C 131.77532,204.74884 132.20991,204.74847 132.64449,204.74878 C 133.08936,204.7488 133.53424,204.74872 133.9791,204.74867 C 134.42212,204.74863 134.86514,204.74863 135.30815,204.74862 C 135.75089,204.74862 136.19363,204.74862 136.63637,204.74862 C 137.07912,204.74862 137.52186,204.74862 137.96461,204.74862 C 138.40737,204.74862 138.85012,204.74862 139.29288,204.74862 C 139.73563,204.74862 140.17838,204.74862 140.62114,204.74862 C 141.06389,204.74862 141.50665,204.74862 141.9494,204.74862 C 142.39216,204.74862 142.83491,204.74862 143.27766,204.74862 C 143.72042,204.74862 144.16317,204.74862 144.60593,204.74862 C 145.04868,204.74862 145.49143,204.74862 145.93419,204.74862 C 146.37694,204.74862 146.8197,204.74862 147.26245,204.74862 C 147.70521,204.74862 148.14796,204.74862 148.59071,204.74862 C 149.03347,204.74862 149.47622,204.74862 149.91898,204.74862 C 150.36173,204.74862 150.80448,204.74862 151.24724,204.74862 C 151.68999,204.74862 152.13275,204.74862 152.5755,204.74862 C 153.01826,204.74862 153.46101,204.74862 153.90376,204.74862 C 154.34652,204.74862 154.78927,204.74862 155.23203,204.74862 C 155.67478,204.74862 156.11754,204.74862 156.56029,204.74862 C 156.69535,204.79316 156.82745,204.86455 156.96104,204.92251 L 154.26508,208.66125 C 154.26489,208.66121 153.90958,208.53391 153.90638,208.58435 C 153.46363,208.58435 153.02088,208.58435 152.57812,208.58435 C 152.13537,208.58435 151.69261,208.58435 151.24986,208.58435 C 150.8071,208.58435 150.36435,208.58435 149.9216,208.58435 C 149.47884,208.58435 149.03609,208.58435 148.59333,208.58435 C 148.15058,208.58435 147.70783,208.58435 147.26507,208.58435 C 146.82232,208.58435 146.37957,208.58435 145.93681,208.58435 C 145.49406,208.58435 145.0513,208.58435 144.60855,208.58435 C 144.1658,208.58435 143.72304,208.58435 143.28029,208.58435 C 142.83753,208.58435 142.39478,208.58435 141.95202,208.58435 C 141.50927,208.58435 141.06652,208.58435 140.62376,208.58435 C 140.18101,208.58435 139.73825,208.58435 139.2955,208.58435 C 138.85274,208.58435 138.40999,208.58435 137.96724,208.58435 C 137.52448,208.58435 137.08173,208.58435 136.63897,208.58435 C 136.19622,208.58435 135.75347,208.58435 135.31071,208.58435 C 134.86796,208.58435 134.42521,208.58435 133.98246,208.58435 C 133.53973,208.58435 133.09699,208.58435 132.65425,208.58435 C 132.21126,208.58434 131.76827,208.58434 131.32527,208.5843 C 130.88045,208.58424 130.43563,208.58417 129.9908,208.58419 C 129.55492,208.58449 129.11905,208.58414 128.68318,208.58699 C 128.40074,208.59125 128.11823,208.58837 127.83588,208.60506 L 130.51846,204.7279 z " />
    <path
       style="fill:#e6e600;fill-opacity:1;fill-rule:nonzero;stroke:#e6e600;stroke-width:1px;stroke-linecap:butt;stroke-linejoin:miter;stroke-opacity:1;opacity:0.5"
       id="path6819"
       d="M 56.607547,139.18127 C 56.720625,138.94918 56.817543,138.7113 56.920375,138.47557 C 57.080359,138.10076 57.237764,137.72504 57.395704,137.34951 C 57.557154,136.96502 57.71852,136.58049 57.879912,136.19597 C 58.040634,135.81306 58.20139,135.43016 58.362141,135.04726 C 58.522795,134.6646 58.683452,134.28194 58.844109,133.89928 C 59.004768,133.51661 59.165428,133.13394 59.326087,132.75127 C 59.48675,132.36859 59.647409,131.98592 59.808071,131.60325 C 59.968733,131.22057 60.129395,130.83789 60.290057,130.45522 C 60.450717,130.07255 60.611379,129.68987 60.772041,129.3072 C 60.932703,128.92452 61.093363,128.54185 61.254027,128.15918 C 61.414687,127.7765 61.575349,127.39383 61.736011,127.01115 C 61.896673,126.62848 62.057333,126.2458 62.217995,125.86313 C 62.378657,125.48046 62.539319,125.09778 62.699979,124.71511 C 62.860641,124.33243 63.021303,123.94976 63.181965,123.56709 C 63.342624,123.18441 63.503289,122.80174 63.663949,122.41906 C 63.824611,122.03639 63.985273,121.65371 64.145935,121.27104 C 64.306597,120.88837 64.467257,120.50569 64.627919,120.12302 C 64.788581,119.74034 64.949243,119.35767 65.109902,118.975 C 65.270564,118.59232 65.431227,118.20965 65.591889,117.82697 C 65.752551,117.4443 65.913213,117.06162 66.073872,116.67895 C 66.158484,116.57456 66.263488,116.48016 66.358297,116.38076 L 68.368736,119.74683 C 68.368637,119.74698 68.137943,120.0188 68.177107,120.03554 C 68.016445,120.41822 67.855785,120.80089 67.695123,121.18357 C 67.534461,121.56624 67.373799,121.94891 67.213137,122.33159 C 67.052475,122.71426 66.891815,123.09693 66.731153,123.47961 C 66.570491,123.86228 66.409829,124.24496 66.249169,124.62763 C 66.088507,125.01031 65.927845,125.39298 65.767183,125.77566 C 65.606523,126.15833 65.445861,126.541 65.285199,126.92368 C 65.124537,127.30635 64.963875,127.68903 64.803213,128.0717 C 64.642553,128.45437 64.481891,128.83705 64.321229,129.21972 C 64.160567,129.6024 63.999905,129.98507 63.839246,130.36775 C 63.678583,130.75042 63.517921,131.13309 63.357259,131.51577 C 63.196597,131.89844 63.035935,132.28112 62.875276,132.66379 C 62.714613,133.04646 62.553951,133.42914 62.393289,133.81181 C 62.23263,134.19449 62.071968,134.57716 61.911306,134.95983 C 61.750643,135.34251 61.589984,135.72518 61.429322,136.10786 C 61.268662,136.49053 61.108,136.8732 60.947341,137.25587 C 60.786686,137.63853 60.626032,138.02119 60.465375,138.40385 C 60.304619,138.78672 60.143874,139.1696 59.983089,139.55247 C 59.821634,139.93692 59.660161,140.32136 59.498766,140.70583 C 59.340845,141.08264 59.182397,141.45928 59.026512,141.8368 C 58.927427,142.08208 58.822611,142.32547 58.733503,142.57412 L 56.607547,139.18127 z " />
    <path
       sodipodi:type="arc"
       style="opacity:0.56284153;fill:url(#radialGradient10415);fill-opacity:1;fill-rule:nonzero;stroke:#e6e600;stroke-width:1;stroke-linecap:round;stroke-miterlimit:8.39999962;stroke-dasharray:none;stroke-opacity:1"
       id="path8625"
       sodipodi:cx="312.14285"
       sodipodi:cy="693.79077"
       sodipodi:rx="95"
       sodipodi:ry="91.428574"
       d="M 407.14285 693.79077 A 95 91.428574 0 1 1  217.14285,693.79077 A 95 91.428574 0 1 1  407.14285 693.79077 z"
       transform="matrix(0.27639,0,0,0.272925,54.67429,-58.42372)" />
    <g
       id="g11400"
       transform="matrix(0.260777,0,0,0.260777,4.03947,-127.4835)"
       style="opacity:0.5;stroke:#e6e600;stroke-opacity:1;fill:#e6e600;fill-opacity:1;stroke-width:3.83469401;stroke-miterlimit:4;stroke-dasharray:none">
      <path
         d="M 480.1581,969.10631 C 481.2088,969.1718 482.26025,969.15943 483.31131,969.17561 C 484.9778,969.18658 486.64429,969.18519 488.31079,969.18636 C 490.01674,969.18644 491.72269,969.18614 493.42863,969.18596 C 495.12747,969.18579 496.8263,969.18579 498.52513,969.18576 C 500.22289,969.18576 501.92065,969.18576 503.61842,969.18576 C 505.31622,969.18576 507.01403,969.18576 508.71183,969.18576 C 510.40967,969.18576 512.10749,969.18576 513.80532,969.18576 C 515.50314,969.18576 517.20097,969.18576 518.8988,969.18576 C 520.59663,969.18576 522.29446,969.18576 523.99228,969.18576 C 525.69011,969.18576 527.38793,969.18576 529.08576,969.18576 C 530.78358,969.18576 532.48142,969.18576 534.17924,969.18576 C 535.87707,969.18576 537.57489,969.18576 539.27272,969.18576 C 540.97054,969.18576 542.66837,969.18576 544.3662,969.18576 C 546.06403,969.18576 547.76185,969.18576 549.45968,969.18576 C 551.1575,969.18576 552.85533,969.18576 554.55316,969.18576 C 556.25099,969.18576 557.94881,969.18576 559.64664,969.18576 C 561.34446,969.18576 563.04229,969.18576 564.74012,969.18576 C 566.43795,969.18576 568.13577,969.18576 569.8336,969.18576 C 571.53142,969.18576 573.22925,969.18576 574.92708,969.18576 C 576.62491,969.18576 578.32274,969.18576 580.02056,969.18576 C 580.53847,969.35655 581.04506,969.6303 581.55732,969.85256 L 571.21912,984.18948 C 571.2184,984.18933 569.85592,983.70117 569.84365,983.8946 C 568.14582,983.8946 566.448,983.8946 564.75017,983.8946 C 563.05234,983.8946 561.35451,983.8946 559.65669,983.8946 C 557.95886,983.8946 556.26104,983.8946 554.56321,983.8946 C 552.86539,983.8946 551.16755,983.8946 549.46973,983.8946 C 547.7719,983.8946 546.07408,983.8946 544.37625,983.8946 C 542.67843,983.8946 540.9806,983.8946 539.28277,983.8946 C 537.58494,983.8946 535.88712,983.8946 534.18929,983.8946 C 532.49147,983.8946 530.79364,983.8946 529.09581,983.8946 C 527.39798,983.8946 525.70015,983.8946 524.00233,983.8946 C 522.3045,983.8946 520.60668,983.8946 518.90885,983.8946 C 517.21102,983.8946 515.51319,983.8946 513.81537,983.8946 C 512.11754,983.8946 510.41972,983.8946 508.72189,983.8946 C 507.02406,983.8946 505.32623,983.8946 503.62841,983.8946 C 501.93058,983.8946 500.23276,983.8946 498.53493,983.8946 C 496.83712,983.8946 495.13931,983.8946 493.4415,983.8946 C 491.74375,983.8946 490.04598,983.8946 488.34822,983.8946 C 486.64948,983.89456 484.95074,983.89456 483.252,983.8944 C 481.54624,983.89419 479.84047,983.89391 478.1347,983.89399 C 476.46325,983.89516 474.7918,983.89381 473.12036,983.90474 C 472.03732,983.92106 470.95396,983.91003 469.87126,983.97404 L 480.1581,969.10631 z "
         id="path11396"
         style="fill:#e6e600;fill-opacity:1;fill-rule:nonzero;stroke:#e6e600;stroke-width:3.83469401;stroke-linecap:butt;stroke-linejoin:miter;stroke-opacity:1;stroke-miterlimit:4;stroke-dasharray:none" />
      <path
         d="M 477.30095,994.82059 C 478.35165,994.88608 479.4031,994.87371 480.45416,994.88989 C 482.12065,994.90086 483.78714,994.89947 485.45364,994.90064 C 487.15959,994.90072 488.86554,994.90042 490.57148,994.90024 C 492.27032,994.90007 493.96915,994.90007 495.66798,994.90004 C 497.36574,994.90004 499.0635,994.90004 500.76127,994.90004 C 502.45907,994.90004 504.15688,994.90004 505.85468,994.90004 C 507.55252,994.90004 509.25034,994.90004 510.94817,994.90004 C 512.64599,994.90004 514.34382,994.90004 516.04165,994.90004 C 517.73948,994.90004 519.43731,994.90004 521.13513,994.90004 C 522.83296,994.90004 524.53078,994.90004 526.22861,994.90004 C 527.92643,994.90004 529.62427,994.90004 531.32209,994.90004 C 533.01992,994.90004 534.71774,994.90004 536.41557,994.90004 C 538.11339,994.90004 539.81122,994.90004 541.50905,994.90004 C 543.20688,994.90004 544.9047,994.90004 546.60253,994.90004 C 548.30035,994.90004 549.99818,994.90004 551.69601,994.90004 C 553.39384,994.90004 555.09166,994.90004 556.78949,994.90004 C 558.48731,994.90004 560.18514,994.90004 561.88297,994.90004 C 563.5808,994.90004 565.27862,994.90004 566.97645,994.90004 C 568.67427,994.90004 570.3721,994.90004 572.06993,994.90004 C 573.76776,994.90004 575.46559,994.90004 577.16341,994.90004 C 577.68132,995.07083 578.18791,995.34458 578.70017,995.56684 L 568.36197,1009.9038 C 568.36125,1009.9036 566.99877,1009.4155 566.9865,1009.6089 C 565.28867,1009.6089 563.59085,1009.6089 561.89302,1009.6089 C 560.19519,1009.6089 558.49736,1009.6089 556.79954,1009.6089 C 555.10171,1009.6089 553.40389,1009.6089 551.70606,1009.6089 C 550.00824,1009.6089 548.3104,1009.6089 546.61258,1009.6089 C 544.91475,1009.6089 543.21693,1009.6089 541.5191,1009.6089 C 539.82128,1009.6089 538.12345,1009.6089 536.42562,1009.6089 C 534.72779,1009.6089 533.02997,1009.6089 531.33214,1009.6089 C 529.63432,1009.6089 527.93649,1009.6089 526.23866,1009.6089 C 524.54083,1009.6089 522.843,1009.6089 521.14518,1009.6089 C 519.44735,1009.6089 517.74953,1009.6089 516.0517,1009.6089 C 514.35387,1009.6089 512.65604,1009.6089 510.95822,1009.6089 C 509.26039,1009.6089 507.56257,1009.6089 505.86474,1009.6089 C 504.16691,1009.6089 502.46908,1009.6089 500.77126,1009.6089 C 499.07343,1009.6089 497.37561,1009.6089 495.67778,1009.6089 C 493.97997,1009.6089 492.28216,1009.6089 490.58435,1009.6089 C 488.8866,1009.6089 487.18883,1009.6089 485.49107,1009.6089 C 483.79233,1009.6088 482.09359,1009.6088 480.39485,1009.6087 C 478.68909,1009.6085 476.98332,1009.6082 475.27755,1009.6083 C 473.6061,1009.6094 471.93465,1009.6081 470.26321,1009.619 C 469.18017,1009.6353 468.09681,1009.6243 467.01411,1009.6883 L 477.30095,994.82059 z "
         id="path11398"
         style="fill:#e6e600;fill-opacity:1;fill-rule:nonzero;stroke:#e6e600;stroke-width:3.83469401;stroke-linecap:butt;stroke-linejoin:miter;stroke-opacity:1;stroke-miterlimit:4;stroke-dasharray:none" />
    </g>
    <path
       style="opacity:0.5;fill:#e6e600;fill-opacity:1;fill-rule:nonzero;stroke:#e6e600;stroke-width:1px;stroke-linecap:butt;stroke-linejoin:miter;stroke-opacity:1"
       id="path44696"
       d="M 210.34935,141.14531 C 210.46243,140.91322 210.55934,140.67534 210.66218,140.43961 C 210.82216,140.0648 210.97957,139.68908 211.13751,139.31355 C 211.29896,138.92906 211.46032,138.54453 211.62171,138.16001 C 211.78244,137.7771 211.94319,137.3942 212.10394,137.0113 C 212.2646,136.62864 212.42525,136.24598 212.58591,135.86332 C 212.74657,135.48065 212.90723,135.09798 213.06789,134.71531 C 213.22855,134.33263 213.38921,133.94996 213.54987,133.56729 C 213.71053,133.18461 213.8712,132.80193 214.03186,132.41926 C 214.19252,132.03659 214.35318,131.65391 214.51384,131.27124 C 214.6745,130.88856 214.83516,130.50589 214.99583,130.12322 C 215.15649,129.74054 215.31715,129.35787 215.47781,128.97519 C 215.63847,128.59252 215.79913,128.20984 215.9598,127.82717 C 216.12046,127.4445 216.28112,127.06182 216.44178,126.67915 C 216.60244,126.29647 216.7631,125.9138 216.92377,125.53113 C 217.08443,125.14845 217.24509,124.76578 217.40575,124.3831 C 217.56641,124.00043 217.72707,123.61775 217.88774,123.23508 C 218.0484,122.85241 218.20906,122.46973 218.36972,122.08706 C 218.53038,121.70438 218.69104,121.32171 218.8517,120.93904 C 219.01237,120.55636 219.17303,120.17369 219.33369,119.79101 C 219.49435,119.40834 219.65501,119.02566 219.81567,118.64299 C 219.90029,118.5386 220.00529,118.4442 220.1001,118.3448 L 222.11054,121.71087 C 222.11044,121.71102 221.87974,121.98284 221.91891,121.99958 C 221.75825,122.38226 221.59759,122.76493 221.43692,123.14761 C 221.27626,123.53028 221.1156,123.91295 220.95494,124.29563 C 220.79428,124.6783 220.63362,125.06097 220.47295,125.44365 C 220.31229,125.82632 220.15163,126.209 219.99097,126.59167 C 219.83031,126.97435 219.66965,127.35702 219.50898,127.7397 C 219.34832,128.12237 219.18766,128.50504 219.027,128.88772 C 218.86634,129.27039 218.70568,129.65307 218.54501,130.03574 C 218.38435,130.41841 218.22369,130.80109 218.06303,131.18376 C 217.90237,131.56644 217.74171,131.94911 217.58105,132.33179 C 217.42038,132.71446 217.25972,133.09713 217.09906,133.47981 C 216.9384,133.86248 216.77774,134.24516 216.61708,134.62783 C 216.45641,135.0105 216.29575,135.39318 216.13509,135.77585 C 215.97443,136.15853 215.81377,136.5412 215.65311,136.92387 C 215.49244,137.30655 215.33179,137.68922 215.17112,138.0719 C 215.01046,138.45457 214.8498,138.83724 214.68914,139.21991 C 214.52849,139.60257 214.36783,139.98523 214.20718,140.36789 C 214.04642,140.75076 213.88568,141.13364 213.72489,141.51651 C 213.56344,141.90096 213.40196,142.2854 213.24057,142.66987 C 213.08265,143.04668 212.9242,143.42332 212.76831,143.80084 C 212.66923,144.04612 212.56441,144.28951 212.4753,144.53816 L 210.34935,141.14531 z " />
    <path
       style="opacity:0.5;fill:#e6e600;fill-opacity:1;fill-rule:nonzero;stroke:#e6e600;stroke-width:1px;stroke-linecap:butt;stroke-linejoin:miter;stroke-opacity:1"
       id="path44698"
       d="M 222.11054,140.78816 C 221.99746,140.55607 221.90055,140.31819 221.79771,140.08246 C 221.63773,139.70765 221.48032,139.33193 221.32238,138.9564 C 221.16093,138.57191 220.99957,138.18738 220.83818,137.80286 C 220.67745,137.41995 220.5167,137.03705 220.35595,136.65415 C 220.19529,136.27149 220.03464,135.88883 219.87398,135.50617 C 219.71332,135.1235 219.55266,134.74083 219.392,134.35816 C 219.23134,133.97548 219.07068,133.59281 218.91002,133.21014 C 218.74936,132.82746 218.58869,132.44478 218.42803,132.06211 C 218.26737,131.67944 218.10671,131.29676 217.94605,130.91409 C 217.78539,130.53141 217.62473,130.14874 217.46406,129.76607 C 217.3034,129.38339 217.14274,129.00072 216.98208,128.61804 C 216.82142,128.23537 216.66076,127.85269 216.50009,127.47002 C 216.33943,127.08735 216.17877,126.70467 216.01811,126.322 C 215.85745,125.93932 215.69679,125.55665 215.53612,125.17398 C 215.37546,124.7913 215.2148,124.40863 215.05414,124.02595 C 214.89348,123.64328 214.73282,123.2606 214.57215,122.87793 C 214.41149,122.49526 214.25083,122.11258 214.09017,121.72991 C 213.92951,121.34723 213.76885,120.96456 213.60819,120.58189 C 213.44752,120.19921 213.28686,119.81654 213.1262,119.43386 C 212.96554,119.05119 212.80488,118.66851 212.64422,118.28584 C 212.5596,118.18145 212.4546,118.08705 212.35979,117.98765 L 210.34935,121.35372 C 210.34945,121.35387 210.58015,121.62569 210.54098,121.64243 C 210.70164,122.02511 210.8623,122.40778 211.02297,122.79046 C 211.18363,123.17313 211.34429,123.5558 211.50495,123.93848 C 211.66561,124.32115 211.82627,124.70382 211.98694,125.0865 C 212.1476,125.46917 212.30826,125.85185 212.46892,126.23452 C 212.62958,126.6172 212.79024,126.99987 212.95091,127.38255 C 213.11157,127.76522 213.27223,128.14789 213.43289,128.53057 C 213.59355,128.91324 213.75421,129.29592 213.91488,129.67859 C 214.07554,130.06126 214.2362,130.44394 214.39686,130.82661 C 214.55752,131.20929 214.71818,131.59196 214.87884,131.97464 C 215.03951,132.35731 215.20017,132.73998 215.36083,133.12266 C 215.52149,133.50533 215.68215,133.88801 215.84281,134.27068 C 216.00348,134.65335 216.16414,135.03603 216.3248,135.4187 C 216.48546,135.80138 216.64612,136.18405 216.80678,136.56672 C 216.96745,136.9494 217.1281,137.33207 217.28877,137.71475 C 217.44943,138.09742 217.61009,138.48009 217.77075,138.86276 C 217.9314,139.24542 218.09206,139.62808 218.25271,140.01074 C 218.41347,140.39361 218.57421,140.77649 218.735,141.15936 C 218.89645,141.54381 219.05793,141.92825 219.21932,142.31272 C 219.37724,142.68953 219.53569,143.06617 219.69158,143.44369 C 219.79066,143.68897 219.89548,143.93236 219.98459,144.18101 L 222.11054,140.78816 z " />
    <g
       id="g44704"
       transform="matrix(0.928868,0,0,0.928868,-55.38278,-139.8822)">
      <path
         d="M 198.63566,205.90338 C 198.90965,205.92046 199.18385,205.91724 199.45794,205.92145 C 199.89252,205.92432 200.32711,205.92395 200.76169,205.92426 C 201.20656,205.92428 201.65144,205.9242 202.0963,205.92415 C 202.53932,205.92411 202.98234,205.92411 203.42535,205.9241 C 203.86809,205.9241 204.31083,205.9241 204.75357,205.9241 C 205.19632,205.9241 205.63906,205.9241 206.08181,205.9241 C 206.52457,205.9241 206.96732,205.9241 207.41008,205.9241 C 207.85283,205.9241 208.29558,205.9241 208.73834,205.9241 C 209.18109,205.9241 209.62385,205.9241 210.0666,205.9241 C 210.50936,205.9241 210.95211,205.9241 211.39486,205.9241 C 211.83762,205.9241 212.28037,205.9241 212.72313,205.9241 C 213.16588,205.9241 213.60863,205.9241 214.05139,205.9241 C 214.49414,205.9241 214.9369,205.9241 215.37965,205.9241 C 215.82241,205.9241 216.26516,205.9241 216.70791,205.9241 C 217.15067,205.9241 217.59342,205.9241 218.03618,205.9241 C 218.47893,205.9241 218.92168,205.9241 219.36444,205.9241 C 219.80719,205.9241 220.24995,205.9241 220.6927,205.9241 C 221.13546,205.9241 221.57821,205.9241 222.02096,205.9241 C 222.46372,205.9241 222.90647,205.9241 223.34923,205.9241 C 223.79198,205.9241 224.23474,205.9241 224.67749,205.9241 C 224.81255,205.96864 224.94465,206.04003 225.07824,206.09799 L 222.38228,209.83673 C 222.38209,209.83669 222.02678,209.70939 222.02358,209.75983 C 221.58083,209.75983 221.13808,209.75983 220.69532,209.75983 C 220.25257,209.75983 219.80981,209.75983 219.36706,209.75983 C 218.9243,209.75983 218.48155,209.75983 218.0388,209.75983 C 217.59604,209.75983 217.15329,209.75983 216.71053,209.75983 C 216.26778,209.75983 215.82503,209.75983 215.38227,209.75983 C 214.93952,209.75983 214.49677,209.75983 214.05401,209.75983 C 213.61126,209.75983 213.1685,209.75983 212.72575,209.75983 C 212.283,209.75983 211.84024,209.75983 211.39749,209.75983 C 210.95473,209.75983 210.51198,209.75983 210.06922,209.75983 C 209.62647,209.75983 209.18372,209.75983 208.74096,209.75983 C 208.29821,209.75983 207.85545,209.75983 207.4127,209.75983 C 206.96994,209.75983 206.52719,209.75983 206.08444,209.75983 C 205.64168,209.75983 205.19893,209.75983 204.75617,209.75983 C 204.31342,209.75983 203.87067,209.75983 203.42791,209.75983 C 202.98516,209.75983 202.54241,209.75983 202.09966,209.75983 C 201.65693,209.75983 201.21419,209.75983 200.77145,209.75983 C 200.32846,209.75982 199.88547,209.75982 199.44247,209.75978 C 198.99765,209.75972 198.55283,209.75965 198.108,209.75967 C 197.67212,209.75997 197.23625,209.75962 196.80038,209.76247 C 196.51794,209.76673 196.23543,209.76385 195.95308,209.78054 L 198.63566,205.90338 z "
         id="path44700"
         style="opacity:0.5;fill:#e6e600;fill-opacity:1;fill-rule:nonzero;stroke:#e6e600;stroke-width:1px;stroke-linecap:butt;stroke-linejoin:miter;stroke-opacity:1" />
      <path
         d="M 208.54898,219.3929 C 208.56606,219.11891 208.56284,218.84471 208.56705,218.57062 C 208.56992,218.13604 208.56955,217.70145 208.56986,217.26687 C 208.56988,216.822 208.5698,216.37712 208.56975,215.93226 C 208.56971,215.48924 208.56971,215.04622 208.5697,214.60321 C 208.5697,214.16047 208.5697,213.71773 208.5697,213.27499 C 208.5697,212.83224 208.5697,212.3895 208.5697,211.94675 C 208.5697,211.50399 208.5697,211.06124 208.5697,210.61848 C 208.5697,210.17573 208.5697,209.73298 208.5697,209.29022 C 208.5697,208.84747 208.5697,208.40471 208.5697,207.96196 C 208.5697,207.5192 208.5697,207.07645 208.5697,206.6337 C 208.5697,206.19094 208.5697,205.74819 208.5697,205.30543 C 208.5697,204.86268 208.5697,204.41993 208.5697,203.97717 C 208.5697,203.53442 208.5697,203.09166 208.5697,202.64891 C 208.5697,202.20615 208.5697,201.7634 208.5697,201.32065 C 208.5697,200.87789 208.5697,200.43514 208.5697,199.99238 C 208.5697,199.54963 208.5697,199.10688 208.5697,198.66412 C 208.5697,198.22137 208.5697,197.77861 208.5697,197.33586 C 208.5697,196.8931 208.5697,196.45035 208.5697,196.0076 C 208.5697,195.56484 208.5697,195.12209 208.5697,194.67933 C 208.5697,194.23658 208.5697,193.79382 208.5697,193.35107 C 208.61424,193.21601 208.68563,193.08391 208.74359,192.95032 L 212.48233,195.64628 C 212.48229,195.64647 212.35499,196.00178 212.40543,196.00498 C 212.40543,196.44773 212.40543,196.89048 212.40543,197.33324 C 212.40543,197.77599 212.40543,198.21875 212.40543,198.6615 C 212.40543,199.10426 212.40543,199.54701 212.40543,199.98976 C 212.40543,200.43252 212.40543,200.87527 212.40543,201.31803 C 212.40543,201.76078 212.40543,202.20353 212.40543,202.64629 C 212.40543,203.08904 212.40543,203.53179 212.40543,203.97455 C 212.40543,204.4173 212.40543,204.86006 212.40543,205.30281 C 212.40543,205.74556 212.40543,206.18832 212.40543,206.63107 C 212.40543,207.07383 212.40543,207.51658 212.40543,207.95934 C 212.40543,208.40209 212.40543,208.84484 212.40543,209.2876 C 212.40543,209.73035 212.40543,210.17311 212.40543,210.61586 C 212.40543,211.05862 212.40543,211.50137 212.40543,211.94412 C 212.40543,212.38688 212.40543,212.82963 212.40543,213.27239 C 212.40543,213.71514 212.40543,214.15789 212.40543,214.60065 C 212.40543,215.0434 212.40543,215.48615 212.40543,215.9289 C 212.40543,216.37163 212.40543,216.81437 212.40543,217.25711 C 212.40542,217.7001 212.40542,218.14309 212.40538,218.58609 C 212.40532,219.03091 212.40525,219.47573 212.40527,219.92056 C 212.40557,220.35644 212.40522,220.79231 212.40807,221.22818 C 212.41233,221.51062 212.40945,221.79313 212.42614,222.07548 L 208.54898,219.3929 z "
         id="path44702"
         style="opacity:0.5;fill:#e6e600;fill-opacity:1;fill-rule:nonzero;stroke:#e6e600;stroke-width:1px;stroke-linecap:butt;stroke-linejoin:miter;stroke-opacity:1" />
    </g>
  </g>
</svg>
